<?xml version="1.0" encoding="utf-8"?>
<!-- Generator: Adobe Illustrator 18.1.1, SVG Export Plug-In . SVG Version: 6.00 Build 0)  -->
<!DOCTYPE svg PUBLIC "-//W3C//DTD SVG 1.1//EN" "http://www.w3.org/Graphics/SVG/1.1/DTD/svg11.dtd">
<svg version="1.1" xmlns="http://www.w3.org/2000/svg" xmlns:xlink="http://www.w3.org/1999/xlink" x="0px" y="0px"
	 viewBox="0 0 32 32" enable-background="new 0 0 32 32" xml:space="preserve">
<g id="back" display="none">
	<g display="inline">
		<path fill="#FFFFFF" d="M28,14.6v2.9c0,0.2-0.1,0.6-0.3,0.6H10.8l7.5,7.5c0.2,0.1,0.2,0.4,0,0.5l-2,2c-0.1,0.1-0.2,0.1-0.3,0.1
			s-0.2-0.1-0.3-0.1L4.1,16.3C4,16.2,4,16.1,4,16c0-0.1,0-0.2,0.1-0.3L15.8,4.1c0.1-0.1,0.4-0.1,0.5,0l2,2c0.2,0.1,0.2,0.3,0,0.4
			L10.8,14h16.9C27.9,14,28,14.4,28,14.6z"/>
	</g>
</g>
<g id="home" display="none">
	<g display="inline">
		<path fill="#FFFFFF" d="M13.9,20.1c-0.4,0-0.7,0.3-0.7,0.7V28H6.7c-1.1,0-1.9-0.9-1.9-1.9V12.7c0-0.6,0.3-1.2,0.7-1.5l9.3-6.8
			C15.2,4.1,15.6,4,16,4c0.4,0,0.8,0.1,1.2,0.4l9.3,6.8c0.5,0.4,0.7,0.9,0.7,1.5v13.3c0,1.1-0.9,1.9-1.9,1.9h-6.6v-7.2
			c0-0.4-0.3-0.7-0.7-0.7H13.9z"/>
	</g>
</g>
<g id="location">
	<path id="place_1_" fill="#FFFFFF" d="M16,4c-4.1,0-7.5,3.4-7.5,7.6C8.5,15.8,16,28,16,28s7.5-12.2,7.5-16.4C23.5,7.4,20.1,4,16,4z
		 M16,13c-1.3,0-2.3-1-2.3-2.3c0-1.3,1-2.3,2.3-2.3c1.3,0,2.3,1,2.3,2.3C18.3,11.9,17.3,13,16,13z"/>
</g>
<g id="contact" display="none">
	<g display="inline">
		<path fill="#FFFFFF" d="M16,4c-4.4,0-8,3.6-8,8c0,4.4,3.6,8,8,8c4.4,0,8-3.6,8-8C24,7.6,20.4,4,16,4z M20.8,21.1
			c-1.4,0.8-3.1,1.2-4.8,1.2c-1.7,0-3.4-0.4-4.8-1.2c-3.1,0.8-5.5,2.8-6.7,6.9h23C26.4,23.8,23.9,21.9,20.8,21.1z"/>
	</g>
</g>
</svg>
